<svg width="38" height="34" viewBox="0 0 38 34" fill="none" xmlns="http://www.w3.org/2000/svg">
<path d="M19 12.9998V20.9998M19 26.9998H19.0201M9.87694 32.9998H28.1232C31.7015 32.9998 33.4907 32.9998 34.5371 32.2475C35.45 31.5911 36.0445 30.5807 36.175 29.4639C36.3245 28.1838 35.4556 26.6198 33.7178 23.4917L24.5947 7.07012C22.7681 3.78235 21.8549 2.13847 20.6511 1.59296C19.6018 1.11745 18.3983 1.11745 17.349 1.59296C16.1452 2.13847 15.232 3.78235 13.4054 7.07012L4.28234 23.4917C2.54452 26.6198 1.67561 28.1838 1.82511 29.4639C1.95556 30.5807 2.55006 31.5911 3.46301 32.2475C4.50936 32.9998 6.29856 32.9998 9.87694 32.9998Z" stroke="#FF3B30" stroke-width="2" stroke-linecap="round" stroke-linejoin="round"/>
</svg>
