<svg width="10" height="10" viewBox="0 0 17 17" fill="none" xmlns="http://www.w3.org/2000/svg">
<path d="M1.03861 15.6515C1.28932 15.9023 1.62863 16.0443 1.98323 16.047C2.33782 16.0496 2.67923 15.9126 2.93366 15.6656L8.34303 10.2563L13.7524 15.6656C14.0056 15.9188 14.3489 16.061 14.707 16.061C15.065 16.061 15.4084 15.9188 15.6616 15.6656C15.9148 15.4125 16.057 15.0691 16.057 14.711C16.057 14.353 15.9148 14.0096 15.6616 13.7564L10.2663 8.36121L15.6757 2.95185C15.9289 2.69867 16.0711 2.3553 16.0711 1.99726C16.0711 1.63922 15.9289 1.29584 15.6757 1.04267C15.4225 0.789491 15.0792 0.647252 14.7211 0.647253C14.3631 0.647253 14.0197 0.789487 13.7665 1.04266L8.36423 6.44496L2.94073 1.02145C2.68755 0.768275 2.34418 0.626047 1.98613 0.626047C1.62809 0.626047 1.28471 0.768271 1.03153 1.02145C0.778359 1.27462 0.636134 1.61801 0.636134 1.97605C0.636134 2.33409 0.778363 2.67746 1.03154 2.93064L6.43383 8.33293L1.0174 13.7494C0.89328 13.8753 0.795325 14.0246 0.72917 14.1886C0.663015 14.3526 0.629965 14.528 0.631937 14.7048C0.633909 14.8817 0.670859 15.0563 0.740655 15.2188C0.810452 15.3813 0.911716 15.5283 1.03861 15.6515Z" fill="#FCFCF7"/>
</svg>
