<svg width="44" height="44" viewBox="0 0 44 44" fill="none" xmlns="http://www.w3.org/2000/svg">
<circle cx="22" cy="22" r="22" fill="#212227"/>
<path d="M29.3651 15.8417C28.9395 15.4159 28.4342 15.0781 27.8779 14.8476C27.3217 14.6172 26.7255 14.4985 26.1235 14.4985C25.5214 14.4985 24.9252 14.6172 24.369 14.8476C23.8128 15.0781 23.3074 15.4159 22.8818 15.8417L21.9985 16.7251L21.1151 15.8417C20.2554 14.982 19.0893 14.499 17.8735 14.499C16.6576 14.499 15.4915 14.982 14.6318 15.8417C13.7721 16.7015 13.2891 17.8675 13.2891 19.0834C13.2891 20.2993 13.7721 21.4653 14.6318 22.3251L15.5151 23.2084L21.9985 29.6917L28.4818 23.2084L29.3651 22.3251C29.791 21.8994 30.1288 21.3941 30.3592 20.8379C30.5897 20.2816 30.7083 19.6855 30.7083 19.0834C30.7083 18.4813 30.5897 17.8851 30.3592 17.3289C30.1288 16.7727 29.791 16.2674 29.3651 15.8417Z" fill="#FF0000" stroke="#FF0000" stroke-width="1.5" stroke-linecap="round" stroke-linejoin="round"/>
</svg>
