<svg width="32" height="32" viewBox="0 0 32 32" fill="none" xmlns="http://www.w3.org/2000/svg">
<path d="M8.87398 19.6301C8.95019 19.2491 8.98829 19.0585 9.05798 18.8809C9.11983 18.7232 9.20003 18.5733 9.29692 18.4344C9.40609 18.2779 9.54347 18.1405 9.81824 17.8657L18.7901 8.89388C19.9819 7.70204 21.9143 7.70204 23.1061 8.89388C24.298 10.0857 24.298 12.0181 23.1061 13.2099L14.1343 22.1818C13.8595 22.4565 13.7221 22.5939 13.5656 22.7031C13.4267 22.8 13.2768 22.8802 13.1191 22.942C12.9415 23.0117 12.7509 23.0498 12.3699 23.126L8 24L8.87398 19.6301Z" stroke="white" stroke-width="1.5" stroke-linecap="round" stroke-linejoin="round"/>
</svg>
