<svg width="64" height="64" viewBox="0 0 64 64" fill="none" xmlns="http://www.w3.org/2000/svg">
<path d="M23 43C34.0457 43 43 34.0457 43 23C43 11.9543 34.0457 3 23 3C11.9543 3 3 11.9543 3 23C3 34.0457 11.9543 43 23 43Z" fill="#FFFFFF"></path>
<path d="M36.618 8.38208C40.1584 12.1671 42.0892 17.18 42.0026 22.362C41.9161 27.5441 39.8191 32.4897 36.1543 36.1544C32.4895 39.8192 27.5439 41.9163 22.3619 42.0028C17.1799 42.0893 12.167 40.1585 8.38196 36.6181C10.2102 38.584 12.4159 40.1613 14.8674 41.2557C17.3188 42.3501 19.9657 42.9393 22.6499 42.9879C25.3341 43.0366 28.0006 42.5438 30.4901 41.539C32.9796 40.5341 35.2411 39.0378 37.1394 37.1395C39.0377 35.2412 40.534 32.9797 41.5388 30.4902C42.5437 28.0007 43.0365 25.3342 42.9878 22.65C42.9392 19.9658 42.35 17.3189 41.2556 14.8675C40.1611 12.4161 38.5839 10.2103 36.618 8.38208V8.38208Z" fill="#FF8E31"></path>
<path d="M21.8291 29.259L17.1711 32.622C16.8327 32.8664 16.4263 32.9989 16.0089 33.0008C15.5915 33.0027 15.1839 32.874 14.8434 32.6326C14.5028 32.3913 14.2463 32.0494 14.1097 31.655C13.9732 31.2605 13.9635 30.8332 14.0821 30.433L15.5821 25.351C15.7055 24.9334 15.6893 24.4869 15.5359 24.0793C15.3825 23.6718 15.1002 23.3255 14.7321 23.093L10.9321 20.693C10.5646 20.4619 10.2823 20.1175 10.1278 19.7119C9.97331 19.3062 9.95497 18.8613 10.0756 18.4443C10.1961 18.0273 10.4491 17.6609 10.7963 17.4003C11.1435 17.1398 11.566 16.9993 12.0001 17H17.2641C17.6731 16.9998 18.0722 16.8742 18.4077 16.6401C18.7431 16.4061 18.9987 16.0748 19.1401 15.691L21.1231 10.309C21.2644 9.92487 21.5201 9.59338 21.8557 9.35922C22.1914 9.12506 22.5908 8.99951 23.0001 8.99951C23.4093 8.99951 23.8087 9.12506 24.1444 9.35922C24.48 9.59338 24.7357 9.92487 24.8771 10.309L26.8601 15.691C27.0014 16.0748 27.257 16.4061 27.5924 16.6401C27.9279 16.8742 28.327 16.9998 28.7361 17H34.0001C34.4335 16.9999 34.8553 17.1408 35.2018 17.4012C35.5483 17.6617 35.8008 18.0277 35.9213 18.4441C36.0418 18.8605 36.0237 19.3047 35.8698 19.71C35.7159 20.1152 35.4346 20.4595 35.0681 20.691L31.2681 23.091C30.8999 23.3235 30.6176 23.6698 30.4642 24.0773C30.3108 24.4849 30.2946 24.9314 30.4181 25.349L31.9181 30.431C32.0366 30.8312 32.0269 31.2585 31.8904 31.653C31.7539 32.0474 31.4973 32.3893 31.1567 32.6306C30.8162 32.872 30.4086 33.0007 29.9912 32.9988C29.5738 32.9969 29.1674 32.8644 28.8291 32.62L24.1711 29.257C23.83 29.0111 23.4202 28.8789 22.9997 28.8793C22.5793 28.8797 22.1697 29.0125 21.8291 29.259Z" fill="#FF8E31"></path>
<path d="M25.947 19L23 11L20.053 19H12L18.361 23.018L16 31L23 25.947L30 31L27.639 23.018L34 19H25.947Z" fill="#FFFFFF"></path>
<path d="M58.326 49.3239C56.861 47.8585 55.9381 45.9383 55.709 43.8789C55.4802 41.8189 54.5569 39.8982 53.091 38.4329L45.456 30.7999C45.2702 30.6141 45.0497 30.4667 44.807 30.3662C44.5643 30.2656 44.3042 30.2139 44.0415 30.2139C43.7788 30.2139 43.5186 30.2656 43.2759 30.3662C43.0332 30.4667 42.8127 30.6141 42.627 30.7999L40.506 32.9219C40.1309 32.547 39.6223 32.3364 39.092 32.3364C38.5616 32.3364 38.053 32.547 37.678 32.9219L35.556 35.0399C35.1809 34.665 34.6723 34.4544 34.142 34.4544C33.6116 34.4544 33.103 34.665 32.728 35.0399L30.607 37.1609L25.307 31.8609C24.8355 31.4055 24.204 31.1536 23.5485 31.1593C22.893 31.165 22.2659 31.4279 21.8024 31.8914C21.3389 32.3549 21.076 32.9819 21.0703 33.6374C21.0646 34.2929 21.3166 34.9244 21.772 35.3959L35.556 49.1819L27.807 47.6319C27.0364 47.4776 26.2361 47.626 25.5721 48.0463C24.9082 48.4667 24.4316 49.1266 24.2415 49.8891C24.0514 50.6516 24.1623 51.458 24.5513 52.1409C24.9402 52.8237 25.5772 53.3305 26.33 53.5559L36.4 56.5749C37.2506 56.8301 38.1339 56.9598 39.022 56.9599H42.387C44.8076 56.9599 47.1292 57.9214 48.841 59.6329L51.2 61.9999L61.1 52.0999L58.326 49.3239Z" fill="#FFFFFF"></path>
<path d="M36.8911 40.891L31.9771 35.791L30.6071 37.161L35.5561 42.111L36.8911 40.891Z" fill="#FFFFFF"></path>
<path d="M35.556 35.0399L40.506 39.9899L41.775 38.7979L36.906 33.6899L35.556 35.0399Z" fill="#FFFFFF"></path>
<path d="M40.506 32.919L45.456 37.868L46.891 36.472L41.905 31.52L40.506 32.919Z" fill="#FFFFFF"></path>
<path d="M50.8359 57.6329C49.1241 55.9214 46.8026 54.9599 44.3819 54.9599H41.0169C40.1289 54.9598 39.2456 54.8301 38.3949 54.5749L28.3299 51.5559C27.5772 51.3301 26.9403 50.8231 26.5516 50.14C26.163 49.4569 26.0524 48.6504 26.2429 47.8879C26.2569 47.8299 26.2839 47.7789 26.3019 47.7229C25.6767 47.9153 25.13 48.3037 24.7427 48.8308C24.3553 49.3579 24.1479 49.9957 24.151 50.6498C24.1542 51.3039 24.3677 51.9396 24.7601 52.463C25.1525 52.9864 25.7029 53.3695 26.3299 53.5559L36.3999 56.5749C37.2506 56.8301 38.1339 56.9598 39.0219 56.9599H42.3869C44.8076 56.9599 47.1291 57.9214 48.8409 59.6329L51.1999 61.9999L53.1999 59.9999L50.8359 57.6329Z" fill="#FFCBBD"></path>
<path opacity="0.4" d="M7.00003 24.0001C6.73481 24.0001 6.48046 23.8947 6.29292 23.7072C6.10538 23.5196 6.00003 23.2653 6.00003 23.0001C5.98663 19.8083 6.87767 16.6781 8.56995 13.9719C10.2622 11.2657 12.6865 9.09427 15.562 7.70908C15.6802 7.65156 15.8086 7.61788 15.9398 7.60997C16.071 7.60206 16.2025 7.62007 16.3267 7.66297C16.451 7.70587 16.5655 7.77282 16.6639 7.86C16.7623 7.94718 16.8425 8.05289 16.9 8.17108C16.9575 8.28927 16.9912 8.41763 16.9991 8.54883C17.007 8.68004 16.989 8.81151 16.9461 8.93576C16.9032 9.06 16.8363 9.17458 16.7491 9.27295C16.6619 9.37132 16.5562 9.45156 16.438 9.50908C13.9009 10.7312 11.7619 12.647 10.2685 15.0346C8.7752 17.4222 7.98867 20.184 8.00003 23.0001C8.00003 23.2653 7.89467 23.5196 7.70713 23.7072C7.5196 23.8947 7.26524 24.0001 7.00003 24.0001Z" fill="white"></path>
<path opacity="0.4" d="M9.77096 32.9999C9.60785 33.0003 9.44713 32.9607 9.30281 32.8847C9.15849 32.8087 9.03495 32.6986 8.94296 32.5639C8.04679 31.2522 7.33984 29.8208 6.84296 28.3119C6.80009 28.1867 6.78251 28.0542 6.79124 27.9221C6.79997 27.79 6.83484 27.661 6.89382 27.5425C6.95281 27.4239 7.03473 27.3183 7.13485 27.2317C7.23496 27.1451 7.35127 27.0793 7.47704 27.038C7.6028 26.9967 7.73552 26.9807 7.86748 26.9911C7.99945 27.0015 8.12804 27.038 8.2458 27.0984C8.36356 27.1589 8.46814 27.2421 8.55348 27.3433C8.63883 27.4445 8.70323 27.5616 8.74296 27.6879C9.18305 29.0185 9.80818 30.2805 10.6 31.4369C10.7025 31.5874 10.7619 31.763 10.772 31.9448C10.782 32.1265 10.7422 32.3076 10.6569 32.4685C10.5716 32.6293 10.444 32.7638 10.2879 32.8575C10.1318 32.9511 9.95302 33.0004 9.77096 32.9999V32.9999Z" fill="white"></path>
<path d="M40.3761 31.635C39.8183 31.3686 39.1919 31.2809 38.5824 31.384C37.9729 31.4871 37.4101 31.7759 36.9711 32.211L35.4181 33.765C34.8595 33.5091 34.237 33.4264 33.631 33.5276C33.0249 33.6289 32.4631 33.9094 32.0181 34.333L30.6041 35.747L26.0041 31.147C25.3372 30.5107 24.4508 30.1556 23.5291 30.1556C22.6073 30.1556 21.7209 30.5107 21.0541 31.147C20.729 31.472 20.4712 31.8579 20.2953 32.2826C20.1194 32.7072 20.0288 33.1624 20.0288 33.622C20.0288 34.0817 20.1194 34.5369 20.2953 34.9615C20.4712 35.3862 20.729 35.772 21.0541 36.097L32.5141 47.554L28.0001 46.652C26.9778 46.448 25.9162 46.6454 25.0356 47.2032C24.155 47.7611 23.523 48.6366 23.2708 49.648C23.0185 50.6594 23.1653 51.7291 23.6808 52.6352C24.1962 53.5413 25.0407 54.2141 26.0391 54.514L36.1041 57.533C37.0481 57.8162 38.0285 57.9601 39.0141 57.96H42.3791C43.4468 57.957 44.5045 58.1659 45.491 58.5744C46.4774 58.9829 47.3731 59.583 48.1261 60.34L50.5001 62.707L51.9141 61.293L49.5471 58.926C48.6089 57.9827 47.4929 57.2348 46.2637 56.7257C45.0345 56.2166 43.7165 55.9563 42.3861 55.96H39.0171C38.2261 55.9604 37.4394 55.8449 36.6821 55.617L26.6171 52.6C26.1117 52.4474 25.6844 52.1063 25.4237 51.6472C25.1629 51.1882 25.0888 50.6465 25.2166 50.1342C25.3443 49.622 25.6642 49.1786 26.11 48.8958C26.5557 48.6129 27.0932 48.5124 27.6111 48.615L35.3601 50.165C35.5703 50.2063 35.7883 50.1789 35.9818 50.0869C36.1753 49.995 36.3342 49.8433 36.435 49.6542C36.5358 49.4652 36.5732 49.2487 36.5417 49.0368C36.5102 48.8248 36.4115 48.6286 36.2601 48.477L22.4751 34.687C22.3357 34.5477 22.2251 34.3823 22.1497 34.2003C22.0742 34.0182 22.0354 33.8231 22.0354 33.626C22.0354 33.429 22.0742 33.2338 22.1497 33.0518C22.2251 32.8697 22.3357 32.7043 22.4751 32.565C22.7608 32.2923 23.1406 32.1402 23.5356 32.1402C23.9305 32.1402 24.3103 32.2923 24.5961 32.565L34.8491 42.818L36.2631 41.4L32.0211 37.157L33.4361 35.743C33.6263 35.5611 33.8793 35.4595 34.1426 35.4595C34.4058 35.4595 34.6589 35.5611 34.8491 35.743L39.8001 40.7L41.2141 39.286L36.9701 35.04L38.3851 33.625C38.5759 33.4439 38.829 33.3429 39.0921 33.3429C39.3552 33.3429 39.6082 33.4439 39.7991 33.625L44.7491 38.575L46.1631 37.161L41.9201 32.919L43.3341 31.5C43.4269 31.4071 43.5372 31.3333 43.6586 31.283C43.78 31.2327 43.9101 31.2068 44.0416 31.2068C44.173 31.2068 44.3031 31.2327 44.4245 31.283C44.5459 31.3333 44.6562 31.4071 44.7491 31.5L52.3841 39.136C53.6873 40.4421 54.509 42.1515 54.7151 43.985C54.971 46.2692 55.9932 48.3993 57.6151 50.028L60.4001 52.808L61.8141 51.394L59.0381 48.618C57.736 47.3113 56.9147 45.6022 56.7081 43.769C56.4507 41.4836 55.4255 39.3531 53.8001 37.726L46.1631 30.09C45.8845 29.8114 45.5537 29.5904 45.1897 29.4396C44.8257 29.2888 44.4356 29.2112 44.0416 29.2112C43.6476 29.2112 43.2574 29.2888 42.8934 29.4396C42.5294 29.5904 42.1986 29.8114 41.9201 30.09L40.3761 31.635Z" fill="black"></path>
<path d="M15.422 31.8161C15.5916 31.9374 15.7949 32.0026 16.0035 32.0026C16.212 32.0026 16.4153 31.9374 16.585 31.8161L23 27.1811L29.415 31.8111C29.5842 31.9332 29.7874 31.9993 29.996 32.0002C30.2047 32.0011 30.4084 31.9366 30.5787 31.8159C30.7489 31.6952 30.8771 31.5242 30.9453 31.327C31.0135 31.1298 31.0183 30.9162 30.959 30.7161L28.812 23.4591L34.534 19.8461C34.7175 19.7305 34.8584 19.5583 34.9355 19.3556C35.0126 19.1529 35.0217 18.9306 34.9614 18.7222C34.9011 18.5139 34.7748 18.3308 34.6013 18.2005C34.4279 18.0703 34.2169 17.9999 34 18.0001H26.645L23.938 10.6541C23.8671 10.4624 23.7392 10.297 23.5715 10.1802C23.4038 10.0634 23.2043 10.0007 23 10.0007C22.7956 10.0007 22.5961 10.0634 22.4284 10.1802C22.2607 10.297 22.1328 10.4624 22.062 10.6541L19.355 18.0001H12C11.7831 17.9999 11.572 18.0703 11.3986 18.2005C11.2252 18.3308 11.0988 18.5139 11.0385 18.7222C10.9783 18.9306 10.9874 19.1529 11.0645 19.3556C11.1416 19.5583 11.2825 19.7305 11.466 19.8461L17.188 23.4591L15.041 30.7161C14.9817 30.9163 14.9866 31.13 15.0549 31.3273C15.1232 31.5245 15.2516 31.6955 15.422 31.8161ZM15.456 20.0001H20.056C20.2604 20 20.4599 19.9373 20.6277 19.8204C20.7954 19.7035 20.9232 19.5379 20.994 19.3461L23 13.8931L25.009 19.3461C25.0797 19.5379 25.2075 19.7035 25.3753 19.8204C25.543 19.9373 25.7425 20 25.947 20.0001H30.547L27.108 22.1721C26.9235 22.2879 26.7819 22.4607 26.7047 22.6643C26.6274 22.8679 26.6188 23.0911 26.68 23.3001L28.21 28.4741L23.585 25.1351C23.4146 25.0122 23.21 24.9461 23 24.9461C22.79 24.9461 22.5853 25.0122 22.415 25.1351L17.79 28.4751L19.32 23.3001C19.3817 23.0913 19.3736 22.8681 19.2969 22.6643C19.2202 22.4605 19.0791 22.2874 18.895 22.1711L15.456 20.0001Z" fill="black"></path>
<path d="M23 44V42C19.0853 41.9955 15.2678 40.7805 12.0707 38.5216C8.87349 36.2626 6.45312 33.0703 5.14123 29.3819C3.82934 25.6936 3.69014 21.6899 4.74269 17.9193C5.79524 14.1488 7.98805 10.7961 11.0206 8.32051C14.0531 5.84496 17.777 4.36777 21.6819 4.09138C25.5869 3.815 29.4817 4.75294 32.8327 6.77667C36.1837 8.8004 38.8269 11.8109 40.4 15.3956C41.9732 18.9802 42.3993 22.9637 41.62 26.8L43.58 27.2C44.4467 22.9541 43.9786 18.544 42.24 14.5747C40.5014 10.6053 37.5774 7.27093 33.8689 5.02895C30.1605 2.78697 25.8493 1.74714 21.5266 2.05207C17.2039 2.357 13.0813 3.99175 9.72437 6.73213C6.3674 9.47251 3.94042 13.1843 2.77625 17.3585C1.61209 21.5326 1.76776 25.9647 3.22193 30.0469C4.67609 34.1291 7.35753 37.6615 10.8985 40.1596C14.4395 42.6576 18.6665 43.9991 23 44V44Z" fill="black"></path>
<path d="M34 9H32V11H34V9Z" fill="black"></path>
<path d="M32 11H30V13H32V11Z" fill="black"></path>
<path d="M36 11H34V13H36V11Z" fill="black"></path>
<path d="M34 13H32V15H34V13Z" fill="black"></path>
<path d="M50 20H48V22H50V20Z" fill="black"></path>
<path d="M48 22H46V24H48V22Z" fill="black"></path>
<path d="M52 22H50V24H52V22Z" fill="black"></path>
<path d="M50 24H48V26H50V24Z" fill="black"></path>
<path d="M49 13H47V15H49V13Z" fill="black"></path>
<path d="M36 21H34V23H36V21Z" fill="black"></path>
</svg>
