 <svg width="32" height="32" viewBox="0 0 32 32" fill="none" xmlns="http://www.w3.org/2000/svg">
<path d="M13.7735 22.1234H5.37256" stroke="#FCFCF7" stroke-width="1.5" stroke-linecap="round" stroke-linejoin="round"/>
<path d="M17.5205 9.20056H25.9215" stroke="#FCFCF7" stroke-width="1.5" stroke-linecap="round" stroke-linejoin="round"/>
<path fill-rule="evenodd" clip-rule="evenodd" d="M11.635 9.12834C11.635 7.4008 10.2241 6 8.48411 6C6.74413 6 5.33325 7.4008 5.33325 9.12834C5.33325 10.8559 6.74413 12.2567 8.48411 12.2567C10.2241 12.2567 11.635 10.8559 11.635 9.12834Z" stroke="#FCFCF7" stroke-width="1.5" stroke-linecap="round" stroke-linejoin="round"/>
<path fill-rule="evenodd" clip-rule="evenodd" d="M26.6665 22.0717C26.6665 20.3442 25.2567 18.9434 23.5167 18.9434C21.7756 18.9434 20.3647 20.3442 20.3647 22.0717C20.3647 23.7992 21.7756 25.2 23.5167 25.2C25.2567 25.2 26.6665 23.7992 26.6665 22.0717Z" stroke="#FCFCF7" stroke-width="1.5" stroke-linecap="round" stroke-linejoin="round"/>
</svg>
