<?xml version="1.0" standalone="no"?>
<!DOCTYPE svg PUBLIC "-//W3C//DTD SVG 1.1//EN" "http://www.w3.org/Graphics/SVG/1.1/DTD/svg11.dtd" >
<svg xmlns="http://www.w3.org/2000/svg">
<metadata>Generated by IcoMoon</metadata>
<defs>
<font id="LTOIcons" horiz-adv-x="1024">
<font-face units-per-em="1024" ascent="960" descent="-64" />
<missing-glyph horiz-adv-x="1024" />
<glyph unicode="&#x20;" horiz-adv-x="512" d="" />
<glyph unicode="&#xe900;" horiz-adv-x="1069" d="M307.634 394.75l-16.662 259.355c7.898 6.583 39.495 5.267 39.495 5.267h184.313l-207.146-264.622zM749.987 392.116l17.114 260.673c-7.898 6.583-39.495 5.265-39.495 5.265h-184.313l206.694-265.937zM746.037 372.369l-217.228 285.685-218.542-285.685h435.77zM780.266 638.306l-17.114-267.255 208.010 10.532c0 0 34.231 2.633 10.532 30.281l-201.427 226.442zM277.807 639.622l17.114-267.253-208.010 10.532c0 0-34.229 2.633-10.532 30.279l201.428 226.442zM764.467 356.57l204.061 11.847-397.59-393.639 193.529 381.792zM743.404 359.204h-435.77l192.211-383.11c0 0 9.216-27.648 30.281-28.964 0 0 19.748 5.267 26.33 23.697l186.947 388.376zM291.836 359.204l-204.061 11.847 397.59-393.641-193.529 381.794z" />
<glyph unicode="&#xe901;" horiz-adv-x="1069" d="M533.695 937.739c6.148 0 11.13-4.983 11.13-11.13v-155.826c0-6.147-4.982-11.13-11.13-11.13-6.146 0-11.13 4.983-11.13 11.13v155.826c0 6.147 4.984 11.13 11.13 11.13z" />
<glyph unicode="&#xe902;" horiz-adv-x="1069" d="M249.262 824.564c5.116 3.41 12.025 2.028 15.436-3.087l44.522-66.783c3.41-5.115 2.028-12.025-3.088-15.435s-12.025-2.028-15.436 3.087l-44.522 66.783c-3.408 5.115-2.028 12.025 3.088 15.435z" />
<glyph unicode="&#xe903;" glyph-name="ownables" horiz-adv-x="993" d="M482.586 889.497c8.735 4.368 19.018 4.368 27.754 0l413.739-206.869c10.513-5.256 17.154-16.001 17.154-27.754s-6.64-22.498-17.154-27.754l-413.739-206.867c-8.735-4.369-19.018-4.369-27.754 0l-413.736 206.867c-10.512 5.257-17.153 16.002-17.153 27.754 0 11.754 6.64 22.498 17.153 27.754l413.736 206.869zM496.463 827.049l-344.35-172.176 344.35-172.176 344.353 172.176-344.353 172.176zM937.965 255.007c7.664-15.329 1.449-33.969-13.88-41.633l-413.739-206.87c-8.735-4.366-19.018-4.366-27.754 0.003l-413.736 206.87c-15.328 7.661-21.541 26.301-13.877 41.63s26.303 21.541 41.631 13.877l399.858-199.931 399.863 199.931c15.329 7.664 33.969 1.452 41.633-13.877zM937.965 461.871c7.664-15.329 1.449-33.969-13.88-41.63l-413.739-206.87c-8.735-4.369-19.018-4.369-27.754 0l-413.736 206.87c-15.328 7.661-21.541 26.301-13.877 41.63s26.303 21.541 41.631 13.877l399.858-199.931 399.863 199.931c15.329 7.664 33.969 1.452 41.633-13.877z" />
<glyph unicode="&#xe904;" glyph-name="menu" d="M154.667 696.242c0 17.137 13.893 31.030 31.030 31.030h661.979c17.138 0 31.030-13.893 31.030-31.030s-13.892-31.030-31.030-31.030h-661.979c-17.138 0-31.030 13.893-31.030 31.030zM423.592 448c0 17.138 13.892 31.030 31.030 31.030h393.055c17.138 0 31.030-13.892 31.030-31.030s-13.892-31.030-31.030-31.030h-393.055c-17.138 0-31.030 13.892-31.030 31.030zM154.667 199.758c0 17.138 13.893 31.030 31.030 31.030h661.979c17.138 0 31.030-13.892 31.030-31.030s-13.892-31.030-31.030-31.030h-661.979c-17.138 0-31.030 13.892-31.030 31.030z" />
<glyph unicode="&#xe905;" glyph-name="qr" d="M795.955 820.364h-132.987v-79.792h132.987c3.528 0 6.91-1.401 9.405-3.895s3.894-5.877 3.894-9.404v-132.987h79.791v132.987c0 24.689-9.806 48.367-27.263 65.825-17.461 17.458-41.137 27.266-65.828 27.266zM370.412 820.364h-132.988c-24.689 0-48.367-9.808-65.825-27.266s-27.266-41.136-27.266-65.825v-132.987h79.792v132.987c0 3.527 1.401 6.91 3.895 9.404s5.877 3.895 9.404 3.895h132.988v79.792zM237.424 75.633h132.988v79.794h-132.988c-3.527 0-6.91 1.399-9.404 3.894s-3.895 5.877-3.895 9.402v132.987h-79.792v-132.987c0-24.688 9.808-48.367 27.266-65.825s41.136-27.266 65.825-27.266zM809.255 168.724c0-3.525-1.399-6.907-3.894-9.402s-5.877-3.894-9.405-3.894h-132.987v-79.794h132.987c24.691 0 48.367 9.809 65.828 27.266 17.458 17.458 27.263 41.137 27.263 65.825v132.987h-79.791v-132.987zM556.581 487.893h-79.794v-79.791h79.794v79.791zM662.975 594.289h-79.794v-79.794h79.794v79.794zM450.185 594.289h-79.791v-79.794h79.791v79.794zM662.975 381.499h-79.794v-79.791h79.794v79.791zM450.185 381.499h-79.791v-79.791h79.791v79.791z" />
<glyph unicode="&#xe906;" glyph-name="transfer" horiz-adv-x="983" d="M686.076 837.942c11.997 11.997 31.449 11.997 43.446 0l152.371-152.37c11.997-11.997 11.997-31.447 0-43.445l-152.371-152.373c-11.997-11.997-31.449-11.997-43.446 0-11.993 11.997-11.997 31.445 0 43.442l130.65 130.653-130.65 130.648c-11.993 11.997-11.997 31.448 0 43.445zM92.16 663.84c0 16.966 13.754 30.72 30.72 30.72h737.28c16.966 0 30.72-13.754 30.72-30.72s-13.754-30.72-30.72-30.72h-737.28c-16.966 0-30.72 13.754-30.72 30.72zM296.972 406.221c11.997-11.997 11.997-31.445 0-43.442l-130.648-130.65 130.648-130.65c11.997-11.997 11.997-31.445 0-43.442s-31.448-11.997-43.445 0l-152.37 152.371c-11.997 11.997-11.997 31.445 0 43.442l152.37 152.371c11.997 11.997 31.447 11.997 43.445 0zM92.16 232.12c0 16.966 13.754 30.72 30.72 30.72h737.28c16.966 0 30.72-13.754 30.72-30.72s-13.754-30.72-30.72-30.72h-737.28c-16.966 0-30.72 13.754-30.72 30.72z" />
<glyph unicode="&#xe907;" horiz-adv-x="1069" d="M818.131 824.564c5.116-3.41 6.498-10.32 3.088-15.435l-44.522-66.783c-3.41-5.116-10.32-6.498-15.436-3.087s-6.496 10.32-3.088 15.435l44.522 66.783c3.41 5.115 10.32 6.497 15.436 3.087z" />
<glyph unicode="&#xe908;" horiz-adv-x="1069" d="M1064.708 734.132c4.348-4.348 4.348-11.395 0-15.743l-110.187-110.185c-4.345-4.348-11.393-4.348-15.741 0-4.345 4.348-4.345 11.395 0 15.741l110.187 110.187c4.348 4.346 11.395 4.346 15.741 0z" />
<glyph unicode="&#xe909;" glyph-name="linkedin" d="M1024-64h-210.401v358.359c0 98.253-37.33 153.16-115.098 153.16-84.603 0-128.799-57.139-128.799-153.16v-358.359h-202.769v682.666h202.769v-91.955c0 0 60.964 112.812 205.829 112.812 144.804 0 248.468-88.423 248.468-271.303v-432.22zM125.033 708.057c-69.067 0-125.033 56.406-125.033 125.971s55.967 125.972 125.033 125.972c69.067 0 125-56.406 125-125.972s-55.933-125.971-125-125.971zM20.333-64h211.433v682.666h-211.433v-682.666z" />
<glyph unicode="&#xe90a;" glyph-name="facebook" horiz-adv-x="563" d="M563.2 960h-153.6c-67.895 0-133.010-26.971-181.019-74.981s-74.981-113.124-74.981-181.019v-153.6h-153.6v-204.8h153.6v-409.6h204.8v409.6h153.6l51.2 204.8h-204.8v153.6c0 13.579 5.394 26.602 14.996 36.204s22.625 14.996 36.204 14.996h153.6v204.8z" />
<glyph unicode="&#xe90b;" glyph-name="wallet" d="M554.672 452.25h-256c-17.493 0-32 14.506-32 32s14.507 32 32 32h256c17.494 0 32-14.506 32-32s-14.506-32-32-32zM85.328 452.269c-17.493 0-32 14.509-32 32v197.119c0 104.533 84.907 189.44 189.44 189.44h239.786c109.654 0 189.44-72.96 189.44-173.227 0-17.493-14.506-32-32-32-17.491 0-32 14.507-32 32 0 75.093-65.28 109.227-125.44 109.227h-239.786c-69.12 0-125.44-56.32-125.44-125.44v-197.119c0-17.92-14.507-32-32-32zM682.662 25.578h-426.668c-111.787 0-202.667 90.88-202.667 202.666v298.669c0 111.786 90.88 202.666 202.667 202.666h426.668c111.786 0 202.666-90.881 202.666-202.666v-61.862c0-17.494-14.506-32-32-32h-46.080c-14.934 0-28.586-5.549-38.4-15.789l-0.426-0.426c-14.080-14.080-19.629-33.706-14.509-52.906 6.4-23.894 31.574-41.392 59.734-41.392h39.68c17.494 0 32-14.506 32-32v-61.866c0-112.214-90.88-203.094-202.666-203.094zM255.995 665.578c-76.373 0-138.667-62.295-138.667-138.666v-298.669c0-76.371 62.293-138.666 138.667-138.666h426.668c76.371 0 138.666 62.294 138.666 138.666v29.869h-7.68c-57.6 0-107.52 36.266-121.6 88.746-11.094 41.386 0.854 85.338 31.146 115.203 22.189 22.614 52.054 34.989 84.054 34.989h14.080v29.862c0 76.371-62.294 138.666-138.666 138.666h-426.668zM894.72 258.144h-82.346c-64.426 0-119.040 47.789-124.16 109.229-3.414 35.411 9.386 69.971 34.986 95.146 21.334 22.186 51.629 34.56 83.629 34.56h87.466c41.814 0 75.946-33.706 75.946-75.52v-87.894c0.429-41.811-33.706-75.52-75.52-75.52zM807.254 433.078c-14.934 0-28.586-5.546-38.4-15.786-12.374-11.949-18.346-28.16-16.64-44.374 2.134-28.16 29.44-50.774 60.16-50.774h82.346c6.4 0 11.949 5.12 11.949 11.52v87.894c0 6.4-5.549 11.52-11.949 11.52h-87.466z" />
<glyph unicode="&#xe90c;" glyph-name="add" horiz-adv-x="979" d="M489.712-11.905c15.787 0 30.943 6.206 42.189 17.288s17.684 26.139 17.916 41.926v340.591h340.591c15.943 0 31.228 6.331 42.5 17.604s17.604 26.562 17.604 42.5c0 15.939-6.331 31.228-17.604 42.5s-26.557 17.604-42.5 17.604h-339.701v340.591c0 15.941-6.331 31.228-17.604 42.5s-26.557 17.604-42.5 17.604c-15.939 0-31.228-6.333-42.5-17.604s-17.603-26.559-17.603-42.5v-340.146h-341.482c-15.941 0-31.228-6.331-42.5-17.604s-17.605-26.562-17.605-42.5c0-15.939 6.333-31.228 17.605-42.5s26.559-17.604 42.5-17.604h340.146v-341.037c0.058-7.871 1.674-15.654 4.753-22.902 3.080-7.244 7.563-13.806 13.193-19.314 5.628-5.503 12.288-9.839 19.603-12.755 7.31-2.921 15.128-4.359 23-4.243z" />
<glyph unicode="&#xe90d;" glyph-name="arrow-up" horiz-adv-x="975" d="M487.619 850.286c-222.176 0-402.286-180.109-402.286-402.286 0-222.179 180.109-402.286 402.286-402.286 222.179 0 402.286 180.107 402.286 402.286 0 222.176-180.107 402.286-402.286 402.286zM12.19 448c0 262.572 212.857 475.429 475.429 475.429 262.573 0 475.429-212.857 475.429-475.429s-212.855-475.429-475.429-475.429c-262.572 0-475.429 212.855-475.429 475.429zM315.473 522.622l146.286 146.286c14.282 14.282 37.436 14.282 51.718 0l146.286-146.286c14.282-14.282 14.282-37.438 0-51.718-14.282-14.282-37.435-14.282-51.717 0l-83.856 83.853v-301.804c0-20.197-16.374-36.571-36.571-36.571s-36.571 16.374-36.571 36.571v301.804l-83.854-83.853c-14.282-14.282-37.438-14.282-51.72 0-14.282 14.28-14.282 37.436 0 51.718z" />
<glyph unicode="&#xe90e;" glyph-name="chevron-left" horiz-adv-x="546" d="M514.071 893.804c19.995-19.995 19.995-52.413 0-72.408l-373.396-373.396 373.396-373.398c19.995-19.995 19.995-52.408 0-72.404s-52.413-19.995-72.408 0l-409.6 409.598c-19.995 19.995-19.995 52.413 0 72.408l409.6 409.6c19.995 19.995 52.413 19.995 72.408 0z" />
<glyph unicode="&#xe90f;" glyph-name="chevron-right" horiz-adv-x="983" d="M346.918 715.482c11.997 11.997 31.448 11.997 43.445 0l245.759-245.761c11.997-11.997 11.997-31.445 0-43.442l-245.759-245.76c-11.997-11.997-31.448-11.997-43.445 0s-11.997 31.445 0 43.442l224.036 224.039-224.036 224.038c-11.997 11.997-11.997 31.448 0 43.445z" />
<glyph unicode="&#xe910;" glyph-name="delete" d="M393.877 811.884c-9.602-9.601-14.997-22.625-14.997-36.204v-51.2h266.24v51.2c0 13.579-5.394 26.602-14.995 36.203-9.605 9.603-22.626 14.997-36.205 14.997h-163.84c-13.578 0-26.602-5.394-36.203-14.996zM317.44 724.48h-174.080c-16.966 0-30.72-13.754-30.72-30.72s13.754-30.72 30.72-30.72h51.2v-542.72c0-29.872 11.867-58.524 32.991-79.647 21.125-21.127 49.776-32.993 79.649-32.993h409.6c29.872 0 58.524 11.866 79.647 32.993 21.127 21.123 32.993 49.775 32.993 79.647v542.72h51.2c16.966 0 30.72 13.754 30.72 30.72s-13.754 30.72-30.72 30.72h-174.080v51.2c0 29.873-11.866 58.524-32.993 79.649-21.123 21.123-49.775 32.991-79.647 32.991h-163.84c-29.873 0-58.524-11.867-79.649-32.992s-32.991-49.775-32.991-79.648v-51.2zM256 663.040h512v-542.72c0-13.578-5.394-26.599-14.995-36.205-9.605-9.601-22.626-14.995-36.205-14.995h-409.6c-13.579 0-26.602 5.394-36.203 14.995-9.603 9.605-14.997 22.626-14.997 36.205v542.72zM430.080 519.68c-16.966 0-30.72-13.754-30.72-30.72v-245.76c0-16.966 13.754-30.72 30.72-30.72s30.72 13.754 30.72 30.72v245.76c0 16.966-13.754 30.72-30.72 30.72zM624.64 488.96v-245.76c0-16.966-13.754-30.72-30.72-30.72s-30.72 13.754-30.72 30.72v245.76c0 16.966 13.754 30.72 30.72 30.72s30.72-13.754 30.72-30.72z" />
<glyph unicode="&#xe911;" horiz-adv-x="1069" d="M3.825 734.132c4.347 4.346 11.394 4.346 15.741 0l110.186-110.187c4.347-4.345 4.347-11.393 0-15.741s-11.394-4.348-15.741 0l-110.186 110.185c-4.347 4.348-4.347 11.395 0 15.743z" />
<glyph unicode="&#xe912;" glyph-name="profile" horiz-adv-x="993" d="M501.471 384.698c-0.829 0-2.070 0-2.898 0-1.241 0-2.895 0-4.136 0-93.919 2.895-164.256 76.127-164.256 166.322 0 91.85 74.889 166.737 166.738 166.737s166.735-74.887 166.735-166.737c-0.413-90.608-71.162-163.427-160.942-166.322-0.829 0-0.829 0-1.241 0zM496.507 656.111c-57.924 0-104.678-47.166-104.678-104.674 0-56.683 44.271-102.608 100.538-104.678 1.241 0.413 5.381 0.413 9.517 0 55.442 2.895 98.884 48.407 99.297 104.678 0 57.508-46.753 104.674-104.675 104.674zM496.497 3.233c-111.293 0-217.625 41.376-299.959 116.674-7.447 6.622-10.757 16.552-9.93 26.065 5.379 49.236 35.995 95.161 86.885 129.086 123.294 81.92 323.129 81.92 446.009 0 50.89-34.338 81.504-79.85 86.885-129.086 1.241-9.93-2.482-19.444-9.93-26.065-82.336-75.298-188.664-116.674-299.961-116.674zM251.566 154.249c68.679-57.508 155.152-88.955 244.931-88.955s176.252 31.446 244.931 88.955c-7.447 25.237-27.307 49.648-56.68 69.508-101.779 67.854-274.308 67.854-376.915 0-29.375-19.859-48.821-44.271-56.268-69.508zM496.463 3.236c-245.345 0-444.766 199.422-444.766 444.77 0 245.345 199.422 444.767 444.766 444.767 245.347 0 444.77-199.422 444.77-444.767 0-245.347-199.422-444.77-444.77-444.77zM496.463 830.712c-211.004 0-382.705-171.701-382.705-382.706s171.701-382.709 382.705-382.709c211.006 0 382.709 171.703 382.709 382.709 0 211.005-171.703 382.706-382.709 382.706z" />
<glyph unicode="&#xe913;" glyph-name="twitter" d="M1024 733.6c-37.6-16.8-78.2-28-120.6-33 43.4 26 76.6 67.2 92.4 116.2-40.6-24-85.6-41.6-133.4-51-38.4 40.8-93 66.2-153.4 66.2-116 0-210-94-210-210 0-16.4 1.8-32.4 5.4-47.8-174.6 8.8-329.4 92.4-433 219.6-18-31-28.4-67.2-28.4-105.6 0-72.8 37-137.2 93.4-174.8-34.4 1-66.8 10.6-95.2 26.2 0-0.8 0-1.8 0-2.6 0-101.8 72.4-186.8 168.6-206-17.6-4.8-36.2-7.4-55.4-7.4-13.6 0-26.6 1.4-39.6 3.8 26.8-83.4 104.4-144.2 196.2-146-72-56.4-162.4-90-261-90-17 0-33.6 1-50.2 3 93.2-59.8 203.6-94.4 322.2-94.4 386.4 0 597.8 320.2 597.8 597.8 0 9.2-0.2 18.2-0.6 27.2 41 29.4 76.6 66.4 104.8 108.6z" />
</font>
</defs>
</svg>
